<svg xmlns="http://www.w3.org/2000/svg" width="140" height="35" viewBox="0 0 140 35">
    <g fill="none" fill-rule="evenodd">
        <g>
            <g>
                <path fill="#D52B1E" d="M30.402 3.415c-1.859 0-4.436.79-6.308 3.366-.344.47-.625 1.068-.79 1.657-.572 2.007-.17 4.216 1.085 5.908.962 1.302 2.19 2.276 3.274 3.136.53.42 1.655 1.484 2.018 1.935.541.677.953 1.08 1.442 2.57.296.904.338 2.095.193 2.77 3.393-3.44 7.099-7.905 7.099-12.762 0-5.58-3.997-8.58-8.013-8.58" transform="translate(-40 -406) translate(40 406)"/>
                <path fill="#B6BF00" d="M24.088 22.281c-1.416-1.929-3.054-3.1-4.406-4.334-.59-.537-1.236-.933-1.714-1.41-2.293-2.278-3.365-5.086-2.823-8.543.428-2.711 1.774-4.492 3.4-5.8C16.604.772 14.301 0 11.699 0 5.24 0-.16 5.19.004 11.59.297 23.142 14.766 32.986 20.728 35c3.188-1.632 4.882-4.684 4.882-7.815 0-2.283-.978-4.164-1.522-4.904" transform="translate(-40 -406) translate(40 406)"/>
                <path fill="#D52B1E" d="M48.319 22.109c1.111.797 3.305 1.822 4.86 1.822 1.195 0 2.224-.455 2.224-1.763 0-1.28-1.613-1.736-3.25-2.39-1.89-.74-3.778-1.91-3.778-4.982 0-4.094 2.971-6.26 7.279-6.26 2.831 0 5.357 1.452 6.663 2.992l-2.833 3.011c-1.277-1.106-2.693-1.933-4.055-1.933-1.111 0-1.942.455-1.942 1.48 0 1.395 1.193 1.735 3.22 2.59 1.943.824 3.943 2.02 3.943 4.953 0 3.981-3.166 6.542-7.665 6.542-3.168 0-5.833-1.337-6.887-2.19l2.22-3.872zM70.964 20.727c.165-.907.22-1.729.22-2.348 0-1.36-.413-2.18-1.377-2.18-1.293 0-2.147 1.3-2.561 3.652-.165.902-.248 1.867-.248 2.6 0 1.246.33 2.264 1.35 2.264 1.348 0 2.148-1.218 2.616-3.988m-.387-7.922c1.957 0 5.399.762 5.399 5.46 0 .624-.028 1.357-.14 2.122-.85 5.547-4.266 7.784-8.176 7.784-3.414 0-5.343-2.04-5.343-5.66 0-.68.027-1.5.164-2.293 1.019-5.943 4.93-7.413 8.096-7.413M82.043 27.317h-4.36l1.906-11.429.104-2.673h3.5l.077 1.959c.967-1.736 2.325-2.37 3.42-2.37.76 0 1.568.193 2.09.55l-1.253 3.83c-.495-.278-1.124-.496-1.774-.496-1.126 0-2.012.714-2.247 2.01l-1.463 8.62zM87.927 27.317L90.317 13.659 94.756 13.659 92.365 27.317zM93.447 6.83c1.336 0 2.163.988 2.163 2.193 0 1.635-1.309 2.928-2.989 2.928-1.364 0-2.133-.895-2.133-2.126 0-1.602 1.252-2.996 2.959-2.996M105.08 16.347c-.312-.14-.76-.227-1.27-.227-2.566 0-3.492 3.885-3.492 6.214 0 1.358.308 2.461 1.66 2.461.96 0 1.635-.618 1.916-1.611l1.185-6.837zm3.154 8.338l-.197 3.063h-3.974v-1.334l-.141-.027c-.984 1.163-2.252 1.784-3.943 1.784-3.016 0-4.37-2.235-4.37-5.302 0-5.813 3.215-10.064 9.104-10.064 1.181 0 3.295.282 5.409 1.132l-1.888 10.748zM110.122 27.317l1.928-11.264.16-2.838h3.696l.054 1.516c1.044-1.184 2.437-1.926 4.232-1.926 2.222 0 3.561 1.045 3.588 3.413 0 .44-.054.994-.135 1.513l-1.659 9.586h-4.474l1.395-8.234c.08-.44.213-1.076.213-1.598 0-.551-.213-1.156-1.018-1.156-1.153 0-1.822.883-2.01 2.037l-1.525 8.951h-4.445zM134.955 16.347c-.31-.14-.762-.227-1.268-.227-2.565 0-3.495 3.885-3.495 6.214 0 1.358.31 2.461 1.664 2.461.956 0 1.634-.618 1.915-1.611l1.184-6.837zm3.156 8.338l-.198 3.063h-3.973v-1.334l-.141-.027c-.987 1.163-2.254 1.784-3.943 1.784-3.016 0-4.368-2.235-4.368-5.302 0-5.813 3.211-10.064 9.101-10.064 1.182 0 3.295.282 5.411 1.132l-1.889 10.748z" transform="translate(-40 -406) translate(40 406)"/>
            </g>
        </g>
    </g>
</svg>
