<svg id="Group_10600" data-name="Group 10600" xmlns="http://www.w3.org/2000/svg" xmlns:xlink="http://www.w3.org/1999/xlink" width="112.71" height="112.737" viewBox="0 0 112.71 112.737">
  <defs>
    <clipPath id="clip-path">
      <rect id="Rectangle_5835" data-name="Rectangle 5835" width="112.71" height="112.736" fill="#4d4f53"/>
    </clipPath>
  </defs>
  <g id="Group_10598" data-name="Group 10598" clip-path="url(#clip-path)">
    <path id="Path_40986" data-name="Path 40986" d="M0,110.3Q10.392,95.163,20.775,80.021a2.553,2.553,0,0,1,2.342-1.136c3.3.018,6.6.006,9.9.006H34.3a3.022,3.022,0,0,0-.8-1.245A98.36,98.36,0,0,1,21.68,59.809,43.03,43.03,0,0,1,18.13,30a38.87,38.87,0,0,1,9.222-18.332A34.327,34.327,0,0,1,40.86,2.674,41.237,41.237,0,0,1,53.19.151,5.009,5.009,0,0,0,53.938,0h4.843c1.633.2,3.271.365,4.9.6a36.711,36.711,0,0,1,17.728,7.42A34.932,34.932,0,0,1,91.75,21.361a47.7,47.7,0,0,1,3.963,22.2,40.531,40.531,0,0,1-4.406,15.663,91.23,91.23,0,0,1-12.025,18.35c-.256.311-.5.632-.745.953a1.4,1.4,0,0,0-.1.306c.406.021.787.057,1.169.058,3.265,0,6.53.033,9.794-.013A2.962,2.962,0,0,1,92.148,80.3q9.9,14.484,19.865,28.92c.514.747.977,1.491.494,2.431-.5.968-1.371,1.072-2.338,1.072q-53.815-.013-107.63.011A2.591,2.591,0,0,1,0,111.4v-1.1M56.677,3.752A42.517,42.517,0,0,0,43.771,5.684,31.388,31.388,0,0,0,28.432,16.059a33.057,33.057,0,0,0-6.309,13.053c-1.438,6.041-2.065,12.159-.8,18.311C22.886,55.07,26.589,61.755,31,68.078c6.947,9.967,15.41,18.538,24.527,26.5.687.6,1.087.519,1.722-.041,2.725-2.4,5.414-4.843,8.011-7.381,7.528-7.354,14.426-15.233,19.827-24.316a47.005,47.005,0,0,0,6.264-15.159,42.131,42.131,0,0,0-2.1-22.818A30.319,30.319,0,0,0,76.272,9.011a38.35,38.35,0,0,0-19.594-5.26M96.045,92.869a1.079,1.079,0,0,0-.066-.292c-2.15-3.147-4.313-6.285-6.447-9.443-.333-.493-.764-.48-1.244-.48-4.144,0-8.289.016-12.433-.013a1.973,1.973,0,0,0-1.609.722A166.521,166.521,0,0,1,58.317,98.519c-1.681,1.4-2.22,1.407-3.9.009A170.5,170.5,0,0,1,38.546,83.471c-.291-.314-.511-.788-1-.794-1.82-.024-3.641-.009-5.478-.009a1.69,1.69,0,0,0,.525,1.045c4.831,6.775,9.684,13.534,14.486,20.331a1.412,1.412,0,0,0,1.8.644Q67.62,99.966,86.382,95.3q4.835-1.208,9.664-2.435m-90.593,16.1c8.853,0,17.431,0,26.008-.006a3.212,3.212,0,0,0,.752-.137c3.551-.886,7.093-1.809,10.657-2.642.93-.217.83-.467.373-1.1-2.449-3.384-4.886-6.778-7.275-10.2a1.318,1.318,0,0,0-1.628-.609C28.462,95.658,22.614,97.22,16.679,98.3c-3.394.617-5.825,1.963-7.436,5.054a58.491,58.491,0,0,1-3.79,5.615m84.727-.054c-.253-.394-.433-.7-.638-.988-1.7-2.388-3.437-4.753-5.094-7.172a1.407,1.407,0,0,0-1.8-.673c-9.546,2.419-19.105,4.787-28.66,7.173-2.023.505-4.042,1.029-6.062,1.544l.035.116Zm-2.391-10.1a2.438,2.438,0,0,0,.167.419c2.187,3.072,4.387,6.135,6.558,9.217a1.271,1.271,0,0,0,1.218.523c3.553-.013,7.106,0,10.659-.014.227,0,.514.131.721-.228q-4.175-6.073-8.371-12.188c-.274-.4-.578-.338-.952-.239-1.238.326-2.479.636-3.721.947-2.083.521-4.168,1.038-6.28,1.563M15.141,94.867C21.1,93.5,26.73,92.2,32.359,90.906c.769-.177.345-.549.129-.852q-2.42-3.4-4.855-6.8c-.213-.3-.408-.58-.849-.6-1.921-.1-3.817-.249-4.706,2.074a9.587,9.587,0,0,1-1.218,1.823l-5.718,8.318" transform="translate(0 -0.001)" fill="#4d4f53"/>
    <path id="Path_40987" data-name="Path 40987" d="M113.507,25.524m25.9,29.555a25.876,25.876,0,1,0-26.169,25.634,25.842,25.842,0,0,0,26.169-25.634" transform="translate(-57.173 -15.564)" fill="none" stroke="#4d4f53" stroke-width="3"/>
    <path id="Path_40988" data-name="Path 40988" d="M177.863,100.592a3.8,3.8,0,0,1,2.731-6.55,3.651,3.651,0,0,1,2.732,1.063,4.1,4.1,0,0,1-.024,5.487,3.627,3.627,0,0,1-2.707,1.088,3.7,3.7,0,0,1-2.731-1.088m.435-10.635a.556.556,0,0,1-.169-.411L177.5,68.468a.578.578,0,0,1,.58-.58h5.657a.577.577,0,0,1,.579.58l-.725,21.078a.577.577,0,0,1-.58.58h-4.3a.558.558,0,0,1-.411-.169" transform="translate(-124.197 -45.312)" fill="#d52b1e"/>
  </g>
</svg>
