<svg id="Group_2" data-name="Group 2" xmlns="http://www.w3.org/2000/svg" width="44.332" height="16.189" viewBox="0 0 44.332 16.189">
  <g id="Group_1" data-name="Group 1" transform="translate(10.873 11.79)">
    <path id="Path_1" data-name="Path 1" d="M250.82,112.8h-8.052L242,117.2h9.474l.575-3.224A1.045,1.045,0,0,0,251,112.8Z" transform="translate(-227.451 -112.8)" fill="#cfcfcf"/>
    <path id="Path_2" data-name="Path 2" d="M128.315,112.8H114.6a.994.994,0,0,0-.981.823L113,117.2h14.549Z" transform="translate(-113 -112.8)" fill="#cfcfcf"/>
    <path id="Path_3" data-name="Path 3" d="M257.234,126.378l.169.484a1.443,1.443,0,0,1-.846.248.823.823,0,0,1-.869-.925,1.228,1.228,0,0,1,1.218-1.387.853.853,0,0,1,.812.5l-.474.316c-.081-.135-.169-.248-.327-.248-.316,0-.5.339-.5.756,0,.282.113.44.349.44a.967.967,0,0,0,.462-.181" transform="translate(-239.594 -123.445)" fill="#cfcfcf"/>
    <path id="Path_4" data-name="Path 4" d="M273.963,124.694a.758.758,0,0,1,.835.823,1.6,1.6,0,0,1-.023.316,1.235,1.235,0,0,1-1.263,1.173.759.759,0,0,1-.823-.857,1.941,1.941,0,0,1,.023-.349,1.2,1.2,0,0,1,1.252-1.105m.056,1.2a2.252,2.252,0,0,0,.034-.349c0-.2-.068-.327-.214-.327-.2,0-.327.192-.395.553a2.548,2.548,0,0,0-.034.395c0,.192.056.339.214.339.2-.011.327-.192.395-.609" transform="translate(-254.677 -123.351)" fill="#cfcfcf"/>
    <path id="Path_5" data-name="Path 5" d="M291.9,126.915l.316-1.816.034-.507h.586l.011.293a.806.806,0,0,1,.632-.293.511.511,0,0,1,.519.282.832.832,0,0,1,.632-.282.486.486,0,0,1,.553.541,1.692,1.692,0,0,1-.023.226l-.27,1.556h-.711l.248-1.387a1.742,1.742,0,0,0,.023-.214c0-.1-.034-.169-.135-.169-.169,0-.27.135-.3.327l-.259,1.455h-.711l.248-1.365a1.846,1.846,0,0,0,.034-.226c0-.09-.023-.181-.147-.181-.169,0-.27.135-.3.327l-.259,1.444h-.71Z" transform="translate(-271.723 -123.261)" fill="#cfcfcf"/>
    <path id="Path_6" data-name="Path 6" d="M246.394,139.5c.192,0,.293.1.293.259a.385.385,0,0,1-.395.395.256.256,0,0,1-.293-.27.376.376,0,0,1,.395-.383" transform="translate(-230.999 -136.488)" fill="#cfcfcf"/>
    <path id="Path_7" data-name="Path 7" d="M121.977,126.284a1.235,1.235,0,0,0,.609.214c.135,0,.226-.056.226-.169s-.192-.181-.363-.237c-.226-.09-.507-.214-.507-.62,0-.5.406-.766.925-.766a1.166,1.166,0,0,1,.835.349l-.363.372a.776.776,0,0,0-.462-.214c-.147,0-.226.068-.226.158,0,.147.135.192.395.293a.615.615,0,0,1,.474.6c0,.5-.395.756-.97.756a1.471,1.471,0,0,1-.857-.259Z" transform="translate(-120.713 -123.362)" fill="#cfcfcf"/>
    <path id="Path_8" data-name="Path 8" d="M140.863,124.694a.758.758,0,0,1,.835.823,1.6,1.6,0,0,1-.023.316,1.235,1.235,0,0,1-1.263,1.173.759.759,0,0,1-.823-.857,1.939,1.939,0,0,1,.023-.349,1.209,1.209,0,0,1,1.252-1.105m.056,1.2a2.253,2.253,0,0,0,.034-.349c0-.2-.068-.327-.214-.327-.2,0-.327.192-.395.553a2.548,2.548,0,0,0-.034.395c0,.192.056.339.214.339.2-.011.327-.192.395-.609" transform="translate(-136.588 -123.351)" fill="#cfcfcf"/>
    <path id="Path_9" data-name="Path 9" d="M159.611,127.025H158.9l.327-1.839.023-.484h.575l.011.372a.67.67,0,0,1,.553-.372.629.629,0,0,1,.339.09l-.2.6a.6.6,0,0,0-.293-.081.354.354,0,0,0-.363.316Z" transform="translate(-153.723 -123.36)" fill="#cfcfcf"/>
    <path id="Path_10" data-name="Path 10" d="M173.2,120.01l.406-2.323h.711l-.406,2.323Zm.914-3.214a.271.271,0,0,1,.293.259.388.388,0,0,1-.406.349.263.263,0,0,1-.293-.248.382.382,0,0,1,.406-.363" transform="translate(-166.41 -116.345)" fill="#cfcfcf"/>
    <path id="Path_11" data-name="Path 11" d="M185.322,126.581l-.034.53h-.6v-.27h-.023a.719.719,0,0,1-.6.27c-.451,0-.666-.339-.666-.8a1.347,1.347,0,0,1,1.376-1.511,2.521,2.521,0,0,1,.823.169Zm-.474-1.263a.449.449,0,0,0-.192-.034c-.383,0-.53.586-.53.936,0,.2.045.372.248.372a.3.3,0,0,0,.293-.248Z" transform="translate(-175.463 -123.446)" fill="#cfcfcf"/>
    <path id="Path_12" data-name="Path 12" d="M203.2,127.023l.316-1.816.034-.507h.586l.011.3a.883.883,0,0,1,.677-.293.5.5,0,0,1,.575.53,1.858,1.858,0,0,1-.023.237l-.27,1.556H204.4l.237-1.355a1.646,1.646,0,0,0,.034-.248c0-.09-.034-.181-.158-.181a.322.322,0,0,0-.316.316l-.259,1.455Z" transform="translate(-193.027 -123.358)" fill="#cfcfcf"/>
    <path id="Path_13" data-name="Path 13" d="M225.622,126.581l-.034.53h-.6v-.27h-.023a.719.719,0,0,1-.6.27c-.451,0-.666-.339-.666-.8a1.347,1.347,0,0,1,1.376-1.511,2.521,2.521,0,0,1,.823.169Zm-.484-1.263a.449.449,0,0,0-.192-.034c-.383,0-.53.586-.53.936,0,.2.045.372.248.372a.3.3,0,0,0,.293-.248Z" transform="translate(-211.217 -123.446)" fill="#cfcfcf"/>
  </g>
  <path id="Path_14" data-name="Path 14" d="M19.1,29.382H16.2L17.835,20.1h3.553c2.019,0,3.192.88,3.192,2.594,0,2.369-1.816,3.744-4.59,3.744h-.372Zm1.139-5.188c.722,0,1.3-.226,1.3-1.162,0-.553-.339-.666-.936-.666h-.27l-.316,1.827Z" transform="translate(-16.2 -18.765)" fill="#cfcfcf"/>
  <path id="Path_15" data-name="Path 15" d="M88.3,18.906l1.274-7.218h2.831l-1.274,7.218ZM91.571,8.294a1.143,1.143,0,0,1,1.243,1.139,1.6,1.6,0,0,1-1.693,1.521,1.093,1.093,0,0,1-1.229-1.117,1.6,1.6,0,0,1,1.679-1.543Z" transform="translate(-80.185 -8.289)" fill="#cfcfcf"/>
  <path id="Path_16" data-name="Path 16" d="M131.125,41.352l.632,1.894a5.127,5.127,0,0,1-2.9.823,2.761,2.761,0,0,1-2.955-3.1c0-3.158,2.042-4.6,4.083-4.579a2.9,2.9,0,0,1,2.807,1.75l-1.872,1.242c-.214-.395-.428-.778-.891-.778-.88,0-1.252,1.06-1.252,2.076,0,.778.316,1.2.9,1.2A2.624,2.624,0,0,0,131.125,41.352Z" transform="translate(-113.557 -33.216)" fill="#cfcfcf"/>
  <path id="Path_17" data-name="Path 17" d="M186.606,23.135l-.169.023L185.93,26H183.1l1.714-9.7h2.831l-.666,3.722.045.011a2.874,2.874,0,0,1,2.539-1.477,1.448,1.448,0,0,1,1.534,1.511,2.787,2.787,0,0,1-1.77,2.458L190.421,26h-3.1Zm1.252-2.558c-.451,0-1,.6-1.218,1.4.846-.113,1.534-.541,1.534-1.072a.3.3,0,0,0-.316-.328Z" transform="translate(-164.319 -15.394)" fill="#cfcfcf"/>
  <path id="Path_18" data-name="Path 18" d="M285.581,38.223l-1,5.73-.1,1.477h-2.357v-.576h-.081a2.418,2.418,0,0,1-1.806.756c-1.376,0-2.053-.609-2.042-1.861a4.556,4.556,0,0,1,.068-.744l.839-4.8h2.821l-.8,4.489a2.36,2.36,0,0,1-.045.316c-.023.293.023.462.293.462.293,0,.507-.293.575-.666l.812-4.6h2.831Z" transform="translate(-248.709 -34.824)" fill="#cfcfcf"/>
  <path id="Path_19" data-name="Path 19" d="M341.421,46.776H338.6l1.725-9.8a12.012,12.012,0,0,1,3.429-.576,2.619,2.619,0,0,1,2.9,2.942c0,2.942-1.624,4.715-4.015,4.715a5.021,5.021,0,0,1-.744-.081Zm.835-4.715a1.121,1.121,0,0,0,.474.081c.645,0,1.117-1.58,1.117-2.718,0-.632-.124-.981-.519-.981a1.749,1.749,0,0,0-.462.068Z" transform="translate(-302.32 -33.227)" fill="#cfcfcf"/>
</svg>
